<?xml version="1.0" encoding="UTF-8" standalone="no"?>
<svg xmlns="http://www.w3.org/2000/svg" xmlns:svg="http://www.w3.org/2000/svg" version="1.1" x="0px" y="0px" width="1280" height="720" viewBox="0 0 1280 720" enable-background="new 0 0 1280 720" xml:space="preserve">
  <defs/>
  <g transform="matrix(1.1797334,0,0,-1.2627358,262.20561,701.93851)" style="opacity:1;stroke-width:0.819313">
    <linearGradient id="SVGID_1_" gradientUnits="userSpaceOnUse" x1="-422.20361" y1="144.0213" x2="2261.033" y2="144.0213">
      <stop offset="0" style="stop-color:#00AEEF"/>
      <stop offset="1" style="stop-color:#2E3192"/>
    </linearGradient>
    <path opacity="0.5" fill="url(#SVGID_1_)" d="m -422.204,206.913 c 0,0 173.292,111.168 438.823,-0.001 154.115,-64.523 276.128,-60.886 421.022,12.909 109.477,55.758 243.895,91.25 368.21,91.796 104.42,0.459 205.692,-20.687 295.24,-72.942 310.249,-181.045 486.337,0 486.337,0 0,0 310.249,250.923 673.604,-19.057 V -56.715 H -421.195 Z" id="path137" style="fill:url(#SVGID_1_);stroke-width:1.20348">
      <animateTransform attributeName="transform" attributeType="XML" type="translate" dur="25" values="150,0;-150,0;150,0;" repeatCount="indefinite"/>
    </path>
  </g>
  <g id="Layer_2" transform="matrix(1.1797334,0,0,-1.2627358,262.20561,701.93851)" style="stroke-width:0.819313">
    <linearGradient id="SVGID_2_" gradientUnits="userSpaceOnUse" x1="-420.54111" y1="112.5312" x2="2257.8955" y2="112.5312">
      <stop offset="0" style="stop-color:#262262"/>
      <stop offset="1" style="stop-color:#00AEEF"/>
    </linearGradient>
    <path opacity="0.5" fill="url(#SVGID_2_)" d="m -420.541,164.707 c 0,0 172.982,92.226 438.049,-0.004 101.218,-35.218 208.451,-48.944 314.181,-24.364 73.381,17.059 141.142,50.094 213.293,71.037 179,51.959 384.443,62.422 555.047,-20.318 309.694,-150.197 485.467,0 485.467,0 0,0 309.694,208.168 672.399,-15.81 V -54.001 h -2677.43 z" id="path145" style="fill:url(#SVGID_2_);stroke-width:1.20348">
      <animateTransform attributeName="transform" attributeType="XML" type="translate" dur="20" values="150,0;-150,0;150,0;" repeatCount="indefinite"/>
    </path>
  </g>
  <g transform="matrix(1.1797334,0,0,-1.2627358,262.20561,701.93851)" style="stroke-width:0.819313">
    <linearGradient id="SVGID_3_" gradientUnits="userSpaceOnUse" x1="-427.02151" y1="95.572998" x2="2261.0151" y2="95.572998">
      <stop offset="0" style="stop-color:#00AEEF"/>
      <stop offset="1" style="stop-color:#2B3990"/>
    </linearGradient>
    <path opacity="0.5" fill="url(#SVGID_3_)" d="m -427.022,147.749 c 0,0 173.602,92.226 439.609,-0.001 196.78,-68.225 341.498,-5.243 528.774,46.796 181.043,50.307 385.075,62.947 557.638,-20.444 310.804,-150.197 487.207,0 487.207,0 0,0 310.804,208.168 674.809,-15.81 V -70.96 H -426.011 Z" id="path153" style="fill:url(#SVGID_3_);stroke-width:1.20348">
      <animateTransform attributeName="transform" attributeType="XML" type="translate" dur="15" values="150,0;-150,0;150,0;" repeatCount="indefinite"/>
    </path>
  </g>
</svg>