<svg xmlns="http://www.w3.org/2000/svg" xml:space="preserve" viewBox="0 0 512 512"><defs><pattern id="a" width="66" height="94" patternTransform="translate(46 198)" patternUnits="userSpaceOnUse"><path d="M66 0v19L10 47l56 28v19L0 54V40Z"/></pattern><pattern id="b" width="66" height="113" patternTransform="translate(126 193)" patternUnits="userSpaceOnUse"><path d="M52 0h14L14 113H0Z"/></pattern><pattern id="c" width="66" height="94" patternTransform="translate(404 198)" patternUnits="userSpaceOnUse"><path d="M66 40v14L0 94V75l55-28L0 19V0Z"/></pattern></defs><path d="m254 164 5-3-1-2c-4-4-9-12-15-23a235 235 0 0 1-7-15l-9 5 2 5a230 230 0 0 0 21 35l4-2zm59-48c-2 11-7 30-12 39l-1 2 6 3 5 3 5-15c3-8 9-29 8-30l-10-4-1 2zm-24 71c-12 1-25 5-36 12-16 9-25 19-28 29-2 4-2 16 0 26 2 13 6 26 16 51 4 11 5 14 4 21l-3 12 1 1-1 1-2 1 3 1h1a141 141 0 0 1-12 7l3 5c9 9 17 3 6 11a314 314 0 0 0-4 5 113 113 0 0 1 11 4l-5 3-5 2 4 5c2 3 8 7 11 9l8 2h24l8-4 7-4c3-2 4-4 5-8v-2a117 117 0 0 0-14 8l-1 1-10 1c-11-1-14-2-21-7l-4-4 5 1a269 269 0 0 0 27 1c8-1 16-6 18-12l1-1-3 1-4 2-3 1h-7c-9 0-14 0-23-2-18-6-6-3 7-3l14-1c6-1 5-1 12-6l6-5-2 1a90 90 0 0 1-47-3l-6-3-3-3h2l5 2c7 3 12 4 23 5l6 1 8-1h2l6-4 7-6 3-1 1-15 1-16a129 129 0 0 1 26-31c8-7 14-14 20-22l6-10 5-24c0-6-2-11-5-16s-6-7-14-10c-12-5-25-8-42-9h-18zm14 9c14 2 25 4 36 9 8 4 12 8 14 17a56 56 0 0 1-10 40c-6 8-12 14-21 22a198 198 0 0 0-16 17c-7 9-9 12-10 18l-1 11v12h-7c-12-1-14-2-24-6a558 558 0 0 0-7-4c2-8 3-16 2-19 0-4-1-6-4-13l-4-10-10-32c-3-9-3-15-3-24 0-11 0-14 4-20l12-12a296 296 0 0 1 27-6h22zm78-64c-5 9-16 25-23 33l-2 2 5 4 4 4 9-12 17-26-9-7-1 2z"/><path fill="url(#a)" d="M46 198h66v94H46z"/><path fill="url(#b)" d="M126 193h66v113h-66z"/><path fill="url(#c)" d="M404 198h66v94h-66z"/></svg>
