<?xml version="1.0" encoding="UTF-8" standalone="no"?>
<svg
   width="128"
   height="128"
   version="1.1"
   id="svg4"
   sodipodi:docname="favicon.svg"
   inkscape:version="1.3.2 (1:1.3.2+202311252150+091e20ef0f)"
   xmlns:inkscape="http://www.inkscape.org/namespaces/inkscape"
   xmlns:sodipodi="http://sodipodi.sourceforge.net/DTD/sodipodi-0.dtd"
   xmlns="http://www.w3.org/2000/svg"
   xmlns:svg="http://www.w3.org/2000/svg">
  <defs
     id="defs4" />
  <sodipodi:namedview
     id="namedview4"
     pagecolor="#505050"
     bordercolor="#ffffff"
     borderopacity="1"
     inkscape:showpageshadow="0"
     inkscape:pageopacity="0"
     inkscape:pagecheckerboard="1"
     inkscape:deskcolor="#505050"
     inkscape:zoom="6.3125"
     inkscape:cx="63.920792"
     inkscape:cy="64"
     inkscape:window-width="1920"
     inkscape:window-height="1043"
     inkscape:window-x="1920"
     inkscape:window-y="1024"
     inkscape:window-maximized="1"
     inkscape:current-layer="svg4" />
  <circle
     style="fill:#ffffff;stroke-width:1.6683;stroke:none"
     id="path5"
     cx="64"
     cy="64"
     r="64" />
  <g
     id="g5"
     transform="matrix(0.88785336,0,0,0.80554887,7.4713295,12.13742)">
    <g
       style="fill:#333333;fill-opacity:1"
       id="g1">
      <path
         d="M 0,0 V 0.09 C 3.16,0.53 3.2,3.74 3.2,3.74 3.2,4.67 2.77,7.11 0,7.47 V 7.48 H -0.14 C -0.33,7.5 -0.48,7.54 -0.69,7.54 h -27.24 c -0.26,0.24 -1.18,1.21 0.07,2.19 H 0 a 1.33,1.33 0 1 1 0,2.65 h -27.86 c -3.9,0 -3.89,-3.75 -3.89,-3.75 0,-0.93 0.43,-3.36 3.2,-3.72 V 4.89 h 0.14 c 0.19,-0.02 0.34,-0.05 0.55,-0.05 H -0.62 C -0.36,4.6 0.56,3.62 -0.7,2.64 h -27.17 c -3.9,0 -3.89,-3.73 -3.89,-3.73 0,-1.01 0.46,-3.8 3.89,-3.8 H 0 a 1.33,1.33 0 0 1 0,2.64 h -27.86 c 0,0 -1.44,1.13 0,2.25 z"
         style="fill:#333333;fill-opacity:1;fill-rule:nonzero;stroke:none"
         transform="matrix(1.333,0,0,-1.333,83.09,117.45)"
         id="path1" />
    </g>
    <g
       style="fill:#001aff;fill-opacity:1;stroke:none"
       id="g2">
      <path
         d="m 0,0 c 0,0 -4.67,-3.63 -4.95,-10.7 v -4.04 c 0,0 0.23,-4.03 -3.34,-4.14 h -21.88 c 0,0 -3.45,-0.7 -3.34,4.26 0,0 0.23,9.2 -5.87,15.08 0,0 -13.24,18.08 0,35 0,0 5.87,9.1 19.93,9.1 0,0 25.09,-0.93 25.55,-26.14 C 6.1,18.42 6.56,7.72 0,0 m -4.95,43.87 c -24.18,10.24 -37.21,-6.8 -37.21,-6.8 a 27.04,27.04 0 0 1 -4.37,-7.62 31.34,31.34 0 0 1 -0.84,-19.47 c 2.25,-8.51 6.15,-12.74 6.15,-12.74 5.07,-6.34 4.52,-13.36 4.52,-13.36 0.03,-4.83 5.26,-5.99 5.26,-5.99 h 24.3 c 5.18,0.7 4.83,6.1 4.83,6.1 l -0.03,5.93 c -0.15,2.07 0.91,4.32 2.39,5.86 3.05,3.18 5.44,6.46 6.65,9.19 1.68,3.83 2.4,7.12 2.4,7.12 3.1,23.95 -14.06,31.78 -14.06,31.78"
         style="fill:#001aff;fill-opacity:1;fill-rule:nonzero;stroke:none"
         transform="matrix(1.333,0,0,-1.333,89.7,67.64)"
         id="path2" />
    </g>
    <g
       style="fill:#ff8000;fill-opacity:1"
       id="g3">
      <path
         d="m 0,0 c -1.85,-2.92 -4.9,-2.73 -4.9,-2.73 -4.76,0.37 -5.14,4.6 -5.14,4.6 -0.14,0.8 -0.8,0.57 -0.8,0.57 -0.51,-0.11 -0.48,-0.52 -0.48,-0.52 0.23,-1.37 0.73,-2.35 0.73,-2.35 -5.55,0.2 -4.98,5.1 -4.98,5.1 0.98,-0.63 2.05,-0.82 2.05,-0.82 0.69,-0.23 0.85,0.34 0.85,0.34 0.18,0.7 -0.37,0.85 -0.37,0.85 -4.25,1.2 -4.48,4.88 -4.48,4.88 -0.17,3.07 2.23,5 2.23,5 0.85,-1.58 3.67,-2.38 3.67,-2.38 -0.2,-3.37 1.97,-5.2 1.97,-5.2 3.19,-2.87 6.6,-1.32 6.6,-1.32 0.73,0.34 0.38,0.82 0.38,0.82 -0.18,0.34 -0.37,0.47 -0.7,0.4 -0.31,-0.07 -1.32,-0.29 -1.64,-0.28 -2.98,0.02 -4.3,1.38 -4.88,2.8 a 5.13,5.13 0 0 0 0.97,5.54 c 1.99,2.13 4.9,1.44 4.9,1.44 0.82,-0.1 0.8,0.4 0.8,0.4 0.2,0.63 -0.38,0.83 -0.38,0.83 -5.97,1.25 -7.74,-4.18 -7.74,-4.18 a 5.86,5.86 0 0 0 -3.9,3.35 c -1.15,4.08 1.6,6.3 1.6,6.3 4.09,3.31 7.62,-0.48 7.62,-0.48 0.47,-0.52 0.9,-0.12 0.9,-0.12 0.52,0.4 0.2,0.85 0.2,0.85 -1.65,2.07 -4.28,2.27 -4.28,2.27 -0.36,2.04 0.24,3.67 1.14,4.5 3,2.77 5.85,1.19 6.82,0.51 1.8,-1.24 2,-3.26 2,-3.26 V 4.11 C 0.76,4.11 0.96,1.53 0,0 m -6.96,33.49 c 0,0 -4.18,-1.23 -4.26,-6.95 0,0 -3.6,-0.6 -5.25,-3.65 0,0 -2.05,-3.02 -0.27,-6.8 0,0 -2.78,-1.78 -2.68,-5.65 0,0 0,-3.27 2.08,-5.12 0,0 -0.38,-3.63 1.85,-5.82 0,0 2.13,-2.24 5.47,-1.78 0,0 0.62,-0.93 2.2,-1.66 a 7.3,7.3 0 0 1 6.62,0.05 c 2.56,1.36 2.63,4.52 2.63,4.52 v 27.55 c 0,0 0.34,2.78 -1.37,4.4 -1.22,1.17 -3.71,2.16 -7.02,0.9"
         style="fill:#ff8000;fill-opacity:1;fill-rule:nonzero;stroke:none"
         transform="matrix(1.333,0,0,-1.333,62.22,63)"
         id="path3" />
    </g>
    <g
       style="fill:#ff8000;fill-opacity:1"
       id="g4">
      <path
         d="m 0,0 c 0.73,0 1.34,-0.5 1.5,-1.18 l 0.17,0.02 H 4.03 V 3.26 L 0.1,8.14 -2.57,6.08 -2.85,5.85 A 1.54,1.54 0 0 0 -4.24,3.6 1.56,1.56 0 1 0 -3.29,6.39 l 0.05,0.06 2.89,2.37 0.14,2.7 -3.93,3.34 -2.78,-2.4 L -7,12.4 A 1.56,1.56 0 1 0 -7.5,13 l 0.06,0.06 2.85,2.36 v 0.98 l -3.76,2.13 -4.08,-2.06 v -35.98 l 4,-2.25 3.87,2.14 -0.07,1.1 -2.81,2.54 a 1.56,1.56 0 0 0 -2.25,2.1 1.5561812,1.5561812 0 0 0 2.62,-1.68 l 0.08,-0.04 2.9,-2.37 3.77,3.34 v 2.82 l -3,2.3 c -0.26,-0.2 -0.57,-0.32 -0.92,-0.32 a 1.56,1.56 0 0 0 -1.18,2.56 l -0.04,0.03 0.04,-0.02 a 1.56,1.56 0 0 0 2.62,-1.59 l 0.12,-0.08 2.78,-2.13 3.93,4.76 v 4.35 H 1.74 L 1.51,-1.92 A 1.56,1.56 0 1 0 0,0"
         style="fill:#ff8000;fill-opacity:1;fill-rule:nonzero;stroke:none"
         transform="matrix(1.333,0,0,-1.333,83.86,41.4)"
         id="path4" />
    </g>
  </g>
</svg>
